<svg xmlns="http://www.w3.org/2000/svg" width="512" height="512" viewBox="0 0 512 512" fill="none"><metadata><rdf:RDF xmlns:rdf="http://www.w3.org/1999/02/22-rdf-syntax-ns#" xmlns:dc="http://purl.org/dc/elements/1.1/"><rdf:Description><dc:creator>RealFaviconGenerator</dc:creator><dc:source>https://realfavicongenerator.net</dc:source></rdf:Description></rdf:RDF></metadata><rect width="512" height="512" rx="4" fill="#83B3D3"></rect><path d="M68.0703 130.909L254.834 351.418L441.016 132.073L68.0703 130.909Z" fill="#23A9E1"></path><path d="M210.04 213.528H310.694C303.131 208.873 285.094 186.764 275.785 194.909C275.203 195.491 247.276 161.746 229.24 178.037C213.531 192.582 205.967 176.291 188.513 187.346C167.567 201.309 200.149 208.873 210.04 213.528ZM365.385 193.164L308.367 193.746C331.058 167.564 340.949 170.473 365.385 193.164Z" fill="white"></path><path d="M422.4 148.945V134.982H434.618L422.4 148.945ZM136.145 203.636C136.727 204.218 150.109 189.673 171.636 175.127C191.418 161.745 221.673 146.618 255.418 146.618C289.164 146.618 320 162.327 339.782 175.709C361.309 189.673 374.691 203.636 375.273 204.218L360.727 221.673C334.545 225.164 315.927 244.364 290.327 240.291C277.527 237.964 276.945 230.982 273.455 223.418C270.545 217.6 265.891 218.764 260.073 216.436C254.836 214.109 251.345 210.036 240.291 212.364C230.982 214.691 229.818 229.236 217.6 228.655C211.2 228.073 210.618 219.345 201.309 207.709C177.455 179.2 155.698 182.752 140.571 208.934L136.145 203.636ZM87.2727 134.982V146.036L77.9636 134.982H87.2727ZM400.873 134.982H419.491V152.436L400.873 174.545V134.982ZM377.018 201.309V134.982H397.382V178.036L377.018 201.309ZM374.109 140.8V198.4C367.709 192 360.727 186.182 353.164 180.945L374.109 140.8ZM350.255 139.055V178.618C347.345 176.873 345.018 174.545 341.527 172.8C337.455 170.473 333.382 167.564 328.727 165.236L350.255 139.055ZM324.655 137.891V162.909C318.836 160 312.436 157.091 306.618 154.182L324.655 137.891ZM328.145 134.982H349.673L328.145 161.745V134.982ZM353.164 134.982H374.109L353.164 176.291V134.982ZM301.964 134.982H324.655L304.291 153.018C303.709 153.018 303.127 152.436 302.545 152.436L301.964 134.982ZM299.055 137.309V151.273C293.236 148.945 287.418 147.2 281.018 146.036L299.055 137.309ZM274.618 137.309V144.873C270.545 144.291 266.473 143.709 261.818 143.127L274.618 137.309ZM235.055 137.309L247.855 143.127C243.2 143.127 239.127 143.709 235.055 144.873V137.309ZM211.2 137.309L229.236 146.036C222.836 147.2 217.018 148.945 211.2 151.273V137.309ZM232.145 144.291L212.945 134.982H232.145V144.291ZM252.509 141.964L236.218 134.4H252.509V141.964ZM256.582 134.982H273.455L256.582 142.545V134.982ZM278.109 134.982H296.727L278.109 144.291V134.982ZM205.964 153.018L185.6 134.982H208.291V152.436L205.964 153.018ZM185.018 137.891L203.055 153.6C196.655 155.927 190.836 158.836 185.018 162.327V137.891ZM160 139.055L180.945 165.236C173.382 169.309 166.4 173.964 160 179.2V139.055ZM135.564 140.8L156.509 181.527C148.945 187.345 141.964 193.164 135.564 200.145V140.8ZM157.091 175.709L136.145 134.4H157.091V175.709ZM182.109 161.164L160.582 134.4H182.109V161.164ZM108.8 171.636L90.1818 149.527V134.982H108.8V171.636ZM112.291 134.982H132.655V200.145L112.291 175.709V134.982ZM64 128V212.945L256 445.091L448 215.273V128H64Z" fill="#491213"></path><path d="M240.876 395.637L256.003 371.2L271.13 395.637L256.003 420.073L240.876 395.637Z" fill="#23A9E1"></path><path d="M286.252 306.036C266.47 294.4 271.125 285.672 287.416 277.527C296.143 273.454 315.343 257.745 322.907 262.981L286.252 306.036ZM272.87 320.581C261.234 320 247.852 318.254 236.216 321.163C243.197 322.909 260.652 328.145 244.361 332.218C250.179 340.363 259.488 339.781 265.307 332.8C262.979 331.636 261.234 329.89 259.488 328.727C265.888 326.981 271.707 323.49 272.87 320.581ZM279.852 311.272C274.616 306.618 268.797 306.618 264.143 311.272C257.161 299.054 232.725 303.127 221.088 301.381C227.488 316.509 276.943 319.418 279.852 311.272ZM240.288 298.472C230.979 295.563 200.725 296.145 220.507 288C226.907 285.672 259.488 288.581 240.288 298.472ZM251.925 281.018C249.016 274.618 254.252 267.054 261.816 272.872C268.797 277.527 258.325 284.509 251.925 281.018ZM235.052 281.6C221.67 285.672 204.216 276.945 225.743 272.872C239.125 269.963 253.088 275.781 235.052 281.6C234.47 281.6 235.634 281.6 235.052 281.6ZM219.925 245.527C217.016 254.836 211.197 256.581 211.779 245.527C212.361 232.145 221.088 235.636 230.397 230.4C237.961 226.327 242.034 210.618 255.416 219.927C261.234 224 268.216 220.509 269.961 226.909C269.961 226.327 253.088 265.89 262.397 265.89C243.779 265.89 251.925 243.781 258.907 228.654C251.925 232.145 240.87 253.672 250.179 257.745C245.525 264.145 230.397 272.872 222.834 266.472C216.434 260.654 219.925 253.09 219.925 245.527ZM196.652 261.818C164.07 261.818 186.179 211.781 197.234 214.69C210.034 218.763 208.288 262.4 196.652 261.818ZM160.579 214.109C145.452 213.527 151.852 198.981 162.325 196.072C172.216 193.163 192.579 202.472 199.561 208.872C189.088 212.363 175.707 211.781 164.07 212.363C162.907 200.727 159.997 204.8 160.579 214.109Z" fill="#DC6243"></path><path d="M272.294 278.109C255.421 260.655 297.312 262.4 304.294 256C308.948 257.745 345.021 224.582 353.748 226.909C347.348 234.473 333.966 257.745 324.657 257.745C317.094 257.745 309.53 256.582 303.712 261.818C294.984 269.964 281.021 274.036 272.294 278.109Z" fill="#F49774"></path><path d="M277.531 257.164C268.222 262.4 259.495 242.618 275.786 244.364C286.258 245.527 297.313 243.2 307.204 244.946C299.64 253.673 289.167 258.328 277.531 257.164Z" fill="#F4B1A4"></path><path d="M151.851 249.6C153.596 251.927 155.341 254.254 154.76 257.745C154.76 260.072 151.269 263.563 153.596 264.727L162.323 254.254C159.996 253.672 141.96 232.145 141.96 229.818L129.741 236.218C130.323 238.545 134.396 236.218 136.723 236.218C139.632 236.218 141.96 238.545 144.287 240.29C137.887 245.527 122.178 259.49 120.432 259.49C119.851 259.49 116.36 257.163 116.36 259.49C116.36 260.654 119.851 263.563 120.432 264.145L128.578 274.036C130.905 272.872 127.996 271.127 129.16 269.381C129.742 268.218 147.778 253.672 151.851 249.6ZM132.069 223.418C133.814 222.836 134.396 225.163 135.56 223.418L126.251 212.363C125.087 210.618 123.342 208.872 123.342 212.363C123.923 214.69 100.069 233.89 98.9051 234.472C97.1597 235.054 95.996 232.727 94.8324 235.054C97.7415 238.545 100.069 241.454 102.978 244.945C104.142 246.109 104.723 247.272 105.887 248.436C107.051 249.6 106.469 246.109 106.469 246.109C105.887 244.363 108.214 242.618 109.96 241.454C115.778 235.636 130.323 223.418 132.069 223.418ZM98.9051 219.927C92.5051 221.672 84.9415 219.345 83.196 212.363C80.8688 205.381 85.5233 198.4 90.7597 194.327C95.996 190.254 104.142 190.836 107.051 197.236C108.214 200.145 107.632 203.636 106.469 206.545C105.887 208.29 104.141 210.036 106.469 211.2C109.96 207.127 112.869 203.054 116.36 198.981C112.287 196.654 110.541 192.581 107.632 189.09C104.141 185.018 100.069 180.945 94.2506 180.363C83.196 178.618 73.3051 190.254 72.1415 200.145C71.5597 205.381 73.3051 210.618 76.796 215.272C79.7051 218.763 83.7779 221.672 86.1051 225.745C87.2688 226.327 96.5779 221.672 98.3233 221.09C99.487 221.09 98.9051 220.509 98.9051 219.927C98.9051 219.927 95.996 221.09 98.9051 219.927ZM247.269 357.236C243.196 354.327 232.141 339.781 229.814 336.872L228.651 335.127L227.487 335.709C226.905 336.29 228.069 338.036 227.487 339.2C224.578 343.854 205.96 357.818 204.796 358.981C202.469 360.145 200.142 358.4 198.978 360.145C201.887 363.636 209.451 373.527 210.614 373.527C212.36 373.527 211.196 370.618 211.196 370.036C211.778 368.872 221.087 360.727 224.578 357.818C225.741 356.654 226.905 359.563 228.069 360.727C229.232 362.472 229.814 364.8 229.232 366.545C228.651 367.709 226.323 370.036 228.069 371.2C230.396 368.29 236.796 360.727 237.96 359.563C239.123 358.4 235.632 359.563 236.214 358.981C235.051 359.563 233.305 360.145 232.142 358.981C231.56 358.981 228.069 354.909 228.651 354.327C230.396 353.163 232.142 350.836 234.469 350.254C237.96 349.672 240.287 356.072 240.869 358.4C241.451 360.727 241.451 363.054 240.287 364.8C239.705 366.545 238.542 367.709 240.287 368.29L248.432 357.236C248.432 357.818 247.851 357.818 247.269 357.236C247.851 357.818 246.687 357.236 247.269 357.236ZM193.741 305.454C189.669 305.454 185.596 307.2 182.105 310.109C173.96 317.09 172.796 329.309 179.196 338.036C186.76 347.927 198.978 349.09 208.869 342.109C217.014 335.127 218.178 322.909 211.778 314.181C207.123 308.363 200.141 305.454 193.741 305.454ZM200.723 313.6C205.96 313.018 209.451 318.254 207.123 324.072C204.796 329.89 198.978 335.709 193.16 338.036C186.178 340.945 181.523 335.127 184.432 328.145C186.76 322.327 192.578 316.509 198.396 314.181C198.978 314.181 199.56 313.6 200.723 313.6ZM184.432 286.836C186.178 286.836 187.923 289.163 189.087 286.836L180.941 276.945C178.614 278.109 180.941 279.272 180.36 280.436C179.196 282.181 170.469 283.345 168.142 283.927C168.723 281.6 171.632 274.036 172.796 273.454C175.123 271.709 176.287 275.2 177.451 272.872L166.978 260.654C165.814 259.49 164.651 256.581 163.487 258.327C163.487 258.327 163.487 264.145 162.905 264.727C162.323 265.89 159.414 278.69 155.923 281.6C154.178 283.345 147.196 289.163 145.451 289.745C143.705 290.327 142.542 287.418 140.796 289.745L150.105 300.8C150.687 301.381 152.432 304.29 153.014 304.29C154.76 304.872 153.014 300.8 153.596 300.218C154.178 298.472 162.905 289.745 166.978 289.163C172.214 288 178.614 286.254 184.432 286.836C183.269 286.836 185.596 286.836 184.432 286.836ZM325.232 325.818C325.814 328.145 326.396 331.054 325.814 333.381C325.232 336.872 322.323 344.436 317.669 342.109C313.014 339.781 309.523 335.709 305.451 332.218C308.36 328.727 311.269 325.818 316.505 327.563C317.669 328.145 318.832 327.563 317.669 326.4C315.923 325.236 306.032 318.836 305.451 319.418C304.287 320.581 307.196 322.909 306.032 325.236C305.451 326.981 303.705 328.145 302.542 329.89C299.632 327.563 295.56 325.236 298.469 321.163C300.796 318.836 303.123 316.509 306.614 315.927C308.941 315.345 313.596 317.672 314.178 315.345C310.105 313.6 306.032 311.272 301.96 309.527C302.542 312.436 289.16 326.4 286.251 329.89C285.669 330.472 283.923 332.218 283.923 332.8C283.923 334.545 286.251 333.381 286.251 333.381C287.996 332.8 311.851 352.581 312.432 354.327C313.014 355.49 311.851 356.654 312.432 357.236C312.432 357.236 313.014 357.818 313.596 357.818C315.342 356.072 330.469 335.127 333.96 334.545C331.051 329.89 328.142 325.236 325.232 320.581C322.905 321.745 324.651 324.654 325.232 325.818ZM301.96 351.418C294.396 346.181 281.014 356.072 278.687 357.236C274.614 358.981 271.705 354.909 274.032 351.418C275.778 348.509 279.269 346.763 282.76 346.763C283.923 346.763 287.996 347.345 287.996 346.763C288.578 346.181 288.578 346.181 287.996 345.6C284.505 343.272 281.596 340.945 278.105 339.2C277.523 343.272 272.869 345.6 270.542 348.509C267.632 352 264.723 356.072 264.723 360.145C264.723 364.218 267.051 368.29 271.123 370.036C275.196 372.363 279.851 370.618 283.923 368.29C286.251 366.545 288.578 364.8 290.905 363.636C294.396 361.89 299.632 363.636 298.469 368.29C297.305 372.363 293.232 375.854 289.16 377.018C286.832 377.6 284.505 377.6 282.178 376.436C280.432 375.854 278.687 373.527 277.523 375.854L290.905 385.163C291.487 382.254 292.651 381.09 294.978 379.345C297.887 377.018 300.214 374.109 302.542 371.2C307.196 365.963 308.942 356.654 301.96 351.418ZM404.36 187.927C404.36 188.509 404.36 188.509 404.36 187.927L399.123 193.745L394.469 199.563C393.305 200.727 392.723 201.309 394.469 202.472C397.378 200.727 414.832 230.4 413.669 234.472C410.76 235.636 387.487 215.272 386.905 214.109C386.905 213.527 388.069 210.036 386.323 210.618C385.742 210.618 383.414 214.109 382.832 214.69L379.341 218.763C380.505 220.509 381.087 218.763 382.832 218.763C383.996 219.345 389.814 224 391.56 225.163C388.651 225.163 381.669 225.745 380.505 225.745C377.014 226.327 378.76 223.418 376.432 222.254L367.705 232.727L362.469 238.545C362.469 238.545 362.469 238.545 362.469 239.127C363.632 240.29 363.051 239.709 364.796 239.127C366.541 238.545 389.814 257.745 390.396 258.909C391.56 260.654 389.814 262.4 392.142 263.563L399.123 255.418C399.705 254.836 399.705 254.836 399.123 254.836C397.378 253.672 397.378 255.418 395.051 255.418C393.305 254.836 378.178 242.618 372.942 237.963L403.778 236.8C404.942 236.8 407.851 240.29 407.851 241.454C407.269 242.618 406.105 243.781 407.851 244.363C409.596 242.036 411.342 240.29 413.087 237.963L413.669 236.8C414.251 236.8 414.251 236.218 414.251 235.636L414.832 235.054C416.578 233.309 421.814 227.49 421.232 226.909C419.487 225.163 418.905 228.654 416.578 226.909C415.414 225.745 411.923 219.927 411.341 218.763C410.178 217.018 413.669 215.272 414.832 214.69C417.742 212.945 427.051 210.036 428.214 215.854C428.214 217.018 427.051 218.181 427.632 218.763C427.632 218.763 428.214 219.927 428.796 219.345L441.014 204.218C440.432 203.636 440.432 203.636 439.851 203.054C436.942 205.963 407.851 194.327 406.105 192.581C405.523 191.418 405.523 187.927 404.36 187.927ZM403.196 203.054C407.851 204.8 411.923 206.545 416.578 208.872C415.414 209.454 414.251 210.036 413.087 210.618C411.923 211.2 410.76 212.363 409.596 213.527L403.196 203.054ZM364.796 247.854C358.396 247.272 351.996 250.181 347.341 255.418C340.36 264.145 340.942 276.945 349.669 283.927C358.396 290.909 371.196 289.163 378.178 281.018C385.16 272.29 384.578 259.49 375.851 252.509C372.942 250.181 368.869 248.436 364.796 247.854ZM356.651 257.163C360.142 257.163 364.214 259.49 366.542 261.236C371.196 264.145 379.342 271.127 375.269 276.945C375.269 276.363 375.851 276.363 374.687 277.527C370.032 282.181 361.887 278.109 357.814 274.618C353.742 271.709 346.178 264.727 350.832 258.909C352.578 257.745 354.323 257.163 356.651 257.163ZM338.614 282.181C331.632 281.6 324.651 285.09 319.414 291.49C315.923 296.145 311.851 300.218 308.36 304.872C309.523 306.618 311.269 304.29 313.014 305.454C314.76 306.618 336.869 324.654 336.869 325.818C337.451 327.563 335.705 328.145 337.451 329.309C338.032 329.89 354.323 309.527 356.069 306.036C358.396 299.636 356.651 292.072 351.414 287.418C351.996 288 352.578 288 351.414 287.418C346.76 283.927 342.687 282.181 338.614 282.181ZM332.214 291.49C332.796 291.49 333.378 291.49 333.96 291.49C342.105 293.818 353.742 303.709 346.178 312.436C345.014 313.6 346.178 312.436 343.851 314.763C342.687 315.927 319.414 297.309 320.578 296.145C322.905 293.236 328.142 290.909 332.214 291.49Z" fill="white"></path></svg>